<svg id="svg" version="1.1" xmlns="http://www.w3.org/2000/svg" xmlns:xlink="http://www.w3.org/1999/xlink" width="400" height="400" viewBox="0, 0, 400,400"><g id="svgg"><path id="path0" d="M238.985 278.000 C 239.096 278.354,238.687 278.927,237.985 279.400 C 237.333 279.840,235.044 281.402,232.899 282.871 C 211.615 297.453,181.779 296.165,162.600 279.837 C 161.940 279.275,161.186 278.635,160.925 278.415 C 160.591 278.134,160.383 278.221,160.226 278.707 C 160.103 279.088,159.465 279.971,158.809 280.669 C 158.020 281.510,157.783 282.006,158.108 282.138 C 158.384 282.249,158.282 282.351,157.876 282.368 C 157.435 282.388,157.264 282.580,157.438 282.862 C 157.611 283.141,157.548 283.215,157.280 283.050 C 157.028 282.894,155.536 284.077,153.819 285.794 C 152.158 287.455,150.800 288.602,150.800 288.345 C 150.800 288.088,150.464 288.265,150.053 288.739 C 149.642 289.212,149.012 289.600,148.653 289.600 C 148.294 289.600,148.000 289.780,148.000 290.000 C 148.000 290.220,147.640 290.400,147.200 290.400 C 146.760 290.400,146.400 290.541,146.400 290.713 C 146.400 290.885,145.545 291.267,144.500 291.563 C 143.455 291.859,142.216 292.339,141.746 292.629 C 141.276 292.920,140.016 293.196,138.946 293.242 C 137.876 293.288,136.809 293.471,136.575 293.649 C 136.342 293.827,133.687 293.996,130.676 294.023 C 127.665 294.051,125.100 294.238,124.977 294.437 C 124.854 294.637,123.604 294.800,122.200 294.800 C 120.796 294.800,119.536 294.980,119.400 295.200 C 119.264 295.420,118.364 295.600,117.400 295.600 C 116.436 295.600,115.536 295.780,115.400 296.000 C 115.264 296.220,114.623 296.400,113.976 296.400 C 113.329 296.400,112.800 296.580,112.800 296.800 C 112.800 297.020,112.159 297.200,111.376 297.200 C 110.529 297.200,110.053 297.362,110.200 297.600 C 110.340 297.827,110.004 298.000,109.424 298.000 C 108.861 298.000,108.400 298.180,108.400 298.400 C 108.400 298.620,107.860 298.800,107.200 298.800 C 106.540 298.800,106.000 298.980,106.000 299.200 C 106.000 299.420,105.640 299.600,105.200 299.600 C 104.760 299.600,104.400 299.780,104.400 300.000 C 104.400 300.220,104.040 300.400,103.600 300.400 C 103.160 300.400,102.800 300.580,102.800 300.800 C 102.800 301.020,102.440 301.200,102.000 301.200 C 101.560 301.200,101.200 301.380,101.200 301.600 C 101.200 301.820,100.840 302.000,100.400 302.000 C 99.960 302.000,99.600 302.180,99.600 302.400 C 99.600 302.620,99.240 302.800,98.800 302.800 C 98.360 302.800,98.000 302.980,98.000 303.200 C 98.000 303.420,97.730 303.600,97.400 303.600 C 97.070 303.600,96.800 303.780,96.800 304.000 C 96.800 304.220,96.530 304.400,96.200 304.400 C 95.870 304.400,95.600 304.580,95.600 304.800 C 95.600 305.020,95.330 305.200,95.000 305.200 C 94.670 305.200,94.400 305.380,94.400 305.600 C 94.400 305.820,94.170 306.000,93.888 306.000 C 93.607 306.000,93.117 306.360,92.800 306.800 C 92.483 307.240,91.993 307.600,91.712 307.600 C 91.430 307.600,91.200 307.960,91.200 308.400 C 91.200 308.840,91.009 309.200,90.776 309.200 C 90.543 309.200,90.481 308.975,90.638 308.700 C 90.795 308.425,90.324 308.740,89.590 309.400 C 88.857 310.060,87.884 310.913,87.428 311.295 C 85.645 312.790,84.000 314.385,84.000 314.618 C 84.000 314.753,83.288 315.547,82.418 316.383 C 81.548 317.219,80.948 318.015,81.085 318.151 C 81.221 318.288,81.045 318.400,80.694 318.400 C 80.342 318.400,79.947 318.738,79.816 319.151 C 79.684 319.564,79.133 320.419,78.589 321.051 C 78.046 321.683,77.601 322.425,77.600 322.700 C 77.600 322.975,77.401 323.200,77.157 323.200 C 76.914 323.200,76.814 323.461,76.937 323.780 C 77.093 324.187,76.967 324.286,76.514 324.112 C 76.116 323.959,75.969 324.026,76.130 324.287 C 76.274 324.519,76.141 324.917,75.835 325.171 C 75.529 325.425,75.167 326.075,75.032 326.616 C 74.896 327.157,74.608 327.600,74.392 327.600 C 74.177 327.600,74.000 327.960,74.000 328.400 C 74.000 328.840,73.820 329.200,73.600 329.200 C 73.380 329.200,73.200 329.560,73.200 330.000 C 73.200 330.440,73.020 330.800,72.800 330.800 C 72.580 330.800,72.400 331.149,72.400 331.576 C 72.400 332.003,72.220 332.464,72.000 332.600 C 71.780 332.736,71.600 333.287,71.600 333.824 C 71.600 334.361,71.420 334.800,71.200 334.800 C 70.980 334.800,70.800 335.160,70.800 335.600 C 70.800 336.040,70.620 336.400,70.400 336.400 C 70.180 336.400,70.000 337.120,70.000 338.000 C 70.000 338.880,69.820 339.600,69.600 339.600 C 69.380 339.600,69.200 340.140,69.200 340.800 C 69.200 341.460,69.020 342.000,68.800 342.000 C 68.580 342.000,68.400 342.619,68.400 343.376 C 68.400 344.133,68.220 344.864,68.000 345.000 C 67.780 345.136,67.600 346.047,67.600 347.024 C 67.600 348.001,67.420 348.800,67.200 348.800 C 66.938 348.800,66.800 357.000,66.800 372.600 C 66.800 388.200,66.938 396.400,67.200 396.400 C 67.420 396.400,67.600 396.694,67.600 397.053 C 67.600 397.965,69.561 399.557,71.000 399.814 C 71.660 399.931,130.258 399.977,201.218 399.914 L 330.236 399.800 331.318 398.718 C 331.913 398.123,332.400 397.358,332.400 397.018 C 332.400 396.678,332.580 396.400,332.800 396.400 C 333.062 396.400,333.200 388.259,333.200 372.776 C 333.200 357.129,333.065 349.236,332.800 349.400 C 332.552 349.553,332.400 348.812,332.400 347.447 C 332.400 346.237,332.220 345.136,332.000 345.000 C 331.780 344.864,331.600 344.133,331.600 343.376 C 331.600 342.619,331.420 342.000,331.200 342.000 C 330.980 342.000,330.800 341.280,330.800 340.400 C 330.800 339.520,330.620 338.800,330.400 338.800 C 330.180 338.800,330.000 338.361,330.000 337.824 C 330.000 337.287,329.820 336.736,329.600 336.600 C 329.380 336.464,329.200 336.003,329.200 335.576 C 329.200 335.149,329.020 334.800,328.800 334.800 C 328.580 334.800,328.400 334.260,328.400 333.600 C 328.400 332.940,328.220 332.400,328.000 332.400 C 327.780 332.400,327.600 332.117,327.600 331.771 C 327.600 331.426,327.321 330.864,326.980 330.523 C 326.640 330.182,326.258 329.388,326.132 328.758 C 326.006 328.128,325.745 327.711,325.551 327.830 C 325.358 327.950,325.200 327.839,325.200 327.584 C 325.200 326.795,323.878 324.234,323.120 323.553 C 322.724 323.197,322.400 322.694,322.400 322.435 C 322.400 322.176,321.950 321.514,321.400 320.964 C 320.850 320.414,320.400 319.796,320.400 319.591 C 320.400 319.385,319.410 318.227,318.200 317.017 C 316.990 315.807,316.000 314.722,316.000 314.605 C 316.000 314.230,313.880 312.000,313.523 312.000 C 313.334 312.000,312.384 311.235,311.413 310.300 C 309.150 308.122,308.510 307.600,308.105 307.600 C 307.924 307.600,307.517 307.240,307.200 306.800 C 306.883 306.360,306.293 306.000,305.888 306.000 C 305.484 306.000,305.264 305.820,305.400 305.600 C 305.536 305.380,305.367 305.200,305.024 305.200 C 304.681 305.200,304.400 305.020,304.400 304.800 C 304.400 304.580,304.080 304.400,303.688 304.400 C 303.297 304.400,302.717 304.040,302.400 303.600 C 302.083 303.160,301.503 302.800,301.112 302.800 C 300.720 302.800,300.400 302.620,300.400 302.400 C 300.400 302.180,300.040 302.000,299.600 302.000 C 299.160 302.000,298.800 301.820,298.800 301.600 C 298.800 301.380,298.440 301.200,298.000 301.200 C 297.560 301.200,297.200 301.020,297.200 300.800 C 297.200 300.580,296.840 300.400,296.400 300.400 C 295.960 300.400,295.600 300.220,295.600 300.000 C 295.600 299.780,295.240 299.600,294.800 299.600 C 294.360 299.600,294.000 299.420,294.000 299.200 C 294.000 298.980,293.460 298.800,292.800 298.800 C 292.140 298.800,291.600 298.620,291.600 298.400 C 291.600 298.180,291.139 298.000,290.576 298.000 C 289.996 298.000,289.660 297.827,289.800 297.600 C 289.947 297.362,289.471 297.200,288.624 297.200 C 287.841 297.200,287.200 297.040,287.200 296.844 C 287.200 296.502,286.078 296.234,282.600 295.744 C 281.720 295.620,280.829 295.356,280.620 295.159 C 280.411 294.962,279.117 294.800,277.744 294.800 C 276.371 294.800,275.136 294.620,275.000 294.400 C 274.854 294.164,272.470 294.000,269.200 294.000 C 265.930 294.000,263.546 293.836,263.400 293.600 C 263.264 293.380,262.353 293.200,261.376 293.200 C 260.399 293.200,259.600 293.020,259.600 292.800 C 259.600 292.580,259.465 292.443,259.300 292.496 C 258.773 292.666,253.600 291.054,253.600 290.721 C 253.600 290.544,253.240 290.400,252.800 290.400 C 252.360 290.400,252.000 290.220,252.000 290.000 C 252.000 289.780,251.680 289.600,251.288 289.600 C 250.897 289.600,250.317 289.240,250.000 288.800 C 249.683 288.360,249.183 288.000,248.890 288.000 C 248.596 288.000,247.299 286.924,246.008 285.609 C 244.587 284.160,243.583 283.411,243.462 283.709 C 243.350 283.985,243.249 283.887,243.232 283.482 C 243.214 283.087,242.795 282.347,242.300 281.837 C 241.805 281.327,241.130 280.503,240.800 280.005 C 239.776 278.460,238.789 277.370,238.985 278.000 M271.688 371.618 C 278.746 373.578,278.328 384.333,271.151 385.395 C 266.182 386.130,246.648 385.434,245.302 384.474 C 240.175 380.817,241.648 372.619,247.634 371.491 C 249.667 371.108,270.242 371.216,271.688 371.618 " stroke="none" fill="#f95165" fill-rule="evenodd"></path><path id="path1" d="M181.700 0.274 C 179.885 0.361,178.400 0.605,178.400 0.816 C 178.400 1.027,177.601 1.200,176.624 1.200 C 175.647 1.200,174.736 1.380,174.600 1.600 C 174.464 1.820,173.553 2.000,172.576 2.000 C 171.599 2.000,170.800 2.180,170.800 2.400 C 170.800 2.620,170.080 2.800,169.200 2.800 C 168.320 2.800,167.600 2.980,167.600 3.200 C 167.600 3.420,166.880 3.600,166.000 3.600 C 165.120 3.600,164.400 3.780,164.400 4.000 C 164.400 4.220,163.860 4.400,163.200 4.400 C 162.540 4.400,162.000 4.580,162.000 4.800 C 162.000 5.020,161.460 5.200,160.800 5.200 C 160.140 5.200,159.600 5.380,159.600 5.600 C 159.600 5.820,159.150 6.000,158.600 6.000 C 158.050 6.000,157.600 6.180,157.600 6.400 C 157.600 6.620,157.060 6.800,156.400 6.800 C 155.740 6.800,155.200 6.980,155.200 7.200 C 155.200 7.420,154.840 7.600,154.400 7.600 C 153.960 7.600,153.600 7.760,153.600 7.955 C 153.600 8.151,152.948 8.433,152.151 8.583 C 151.354 8.732,150.409 9.011,150.051 9.202 C 149.693 9.393,148.373 10.028,147.117 10.613 C 145.861 11.198,144.624 11.930,144.368 12.239 C 144.112 12.547,143.564 12.800,143.151 12.800 C 142.738 12.800,142.400 12.980,142.400 13.200 C 142.400 13.420,142.130 13.600,141.800 13.600 C 141.470 13.600,141.200 13.780,141.200 14.000 C 141.200 14.220,140.880 14.400,140.488 14.400 C 140.097 14.400,139.517 14.760,139.200 15.200 C 138.883 15.640,138.343 16.000,138.000 16.000 C 137.657 16.000,137.117 16.360,136.800 16.800 C 136.483 17.240,136.020 17.600,135.771 17.600 C 135.522 17.600,134.754 18.140,134.063 18.800 C 133.372 19.460,132.612 20.000,132.372 20.000 C 132.133 20.000,131.276 20.675,130.469 21.500 C 129.661 22.325,128.511 23.252,127.914 23.560 C 127.316 23.868,126.922 24.273,127.037 24.460 C 127.153 24.647,127.074 24.800,126.863 24.800 C 126.316 24.800,118.400 32.668,118.400 33.212 C 118.400 33.460,117.680 34.354,116.800 35.200 C 115.920 36.046,115.200 36.949,115.200 37.208 C 115.200 37.467,114.660 38.183,114.000 38.800 C 113.340 39.417,112.800 40.169,112.800 40.472 C 112.800 40.775,112.440 41.283,112.000 41.600 C 111.560 41.917,111.200 42.407,111.200 42.688 C 111.200 42.970,111.050 43.200,110.867 43.200 C 110.683 43.200,110.008 44.235,109.367 45.500 C 108.725 46.765,108.065 47.860,107.900 47.933 C 107.735 48.007,107.600 48.412,107.600 48.833 C 107.600 49.255,107.420 49.600,107.200 49.600 C 106.980 49.600,106.800 49.960,106.800 50.400 C 106.800 50.840,106.620 51.200,106.400 51.200 C 106.180 51.200,106.000 51.560,106.000 52.000 C 106.000 52.440,105.820 52.800,105.600 52.800 C 105.380 52.800,105.200 53.160,105.200 53.600 C 105.200 54.040,105.020 54.400,104.800 54.400 C 104.580 54.400,104.400 54.760,104.400 55.200 C 104.400 55.640,104.220 56.000,104.000 56.000 C 103.780 56.000,103.600 56.360,103.600 56.800 C 103.600 57.240,103.420 57.600,103.200 57.600 C 102.980 57.600,102.800 57.960,102.800 58.400 C 102.800 58.840,102.620 59.200,102.400 59.200 C 102.180 59.200,102.000 59.650,102.000 60.200 C 102.000 60.750,101.820 61.200,101.600 61.200 C 101.380 61.200,101.200 61.549,101.200 61.976 C 101.200 62.403,101.020 62.864,100.800 63.000 C 100.580 63.136,100.400 63.687,100.400 64.224 C 100.400 64.761,100.220 65.200,100.000 65.200 C 99.780 65.200,99.600 65.740,99.600 66.400 C 99.600 67.060,99.420 67.600,99.200 67.600 C 98.980 67.600,98.800 68.140,98.800 68.800 C 98.800 69.460,98.620 70.000,98.400 70.000 C 98.180 70.000,98.000 70.529,98.000 71.176 C 98.000 71.823,97.820 72.464,97.600 72.600 C 97.380 72.736,97.200 73.467,97.200 74.224 C 97.200 74.981,97.020 75.600,96.800 75.600 C 96.580 75.600,96.400 76.230,96.400 77.000 C 96.400 77.770,96.238 78.400,96.040 78.400 C 95.842 78.400,95.583 79.165,95.464 80.100 C 95.345 81.035,95.043 82.790,94.795 84.000 C 94.546 85.210,94.257 87.190,94.153 88.400 C 94.049 89.610,93.799 90.960,93.598 91.400 C 92.504 93.787,91.926 155.357,93.001 154.944 C 93.330 154.818,93.600 154.914,93.600 155.157 C 93.600 155.401,93.445 155.600,93.255 155.600 C 93.066 155.600,92.997 156.048,93.101 156.595 C 93.206 157.143,93.416 157.514,93.567 157.420 C 93.719 157.327,93.861 157.877,93.882 158.644 C 93.907 159.521,94.230 160.306,94.754 160.760 C 95.211 161.157,95.469 161.598,95.326 161.741 C 95.183 161.883,95.367 162.000,95.733 162.000 C 96.100 162.000,96.400 162.262,96.400 162.581 C 96.400 163.714,97.316 165.259,97.663 164.711 C 97.880 164.370,97.992 164.532,98.000 165.200 C 98.007 165.760,98.141 166.007,98.306 165.761 C 98.500 165.471,98.910 165.641,99.514 166.261 C 100.059 166.820,100.220 167.201,99.914 167.202 C 99.631 167.204,99.916 167.474,100.546 167.802 C 101.176 168.131,101.941 168.400,102.246 168.400 C 102.551 168.400,102.800 168.580,102.800 168.800 C 102.800 169.020,103.086 169.200,103.436 169.200 C 103.786 169.200,104.429 169.605,104.866 170.100 C 105.303 170.595,105.547 170.775,105.407 170.500 C 105.267 170.225,105.343 170.000,105.576 170.000 C 105.809 170.000,106.000 170.180,106.000 170.400 C 106.000 170.620,106.495 170.813,107.100 170.828 C 108.075 170.853,108.109 170.895,107.400 171.200 C 106.838 171.442,107.373 171.554,109.200 171.578 C 111.034 171.602,111.623 171.726,111.200 172.000 C 110.751 172.290,110.962 172.389,112.036 172.394 C 114.459 172.404,114.389 173.234,114.632 141.669 C 114.840 114.633,114.973 111.469,116.064 107.400 C 119.038 96.315,127.226 86.274,137.400 81.232 C 140.302 79.794,142.102 79.141,147.600 77.528 C 150.301 76.736,249.692 76.752,252.600 77.545 C 264.606 80.820,274.881 88.118,279.427 96.600 C 279.663 97.040,280.304 98.210,280.852 99.200 C 281.996 101.267,283.294 104.591,283.978 107.200 C 284.237 108.190,284.651 109.540,284.897 110.200 C 285.206 111.032,285.387 120.488,285.484 141.000 C 285.636 173.318,285.687 173.970,287.900 171.757 C 288.363 171.294,288.987 171.173,290.130 171.327 C 291.222 171.473,291.899 171.358,292.301 170.956 C 292.629 170.628,293.216 170.478,293.642 170.613 C 294.063 170.747,294.400 170.664,294.400 170.427 C 294.400 170.192,294.850 170.000,295.400 170.000 C 295.950 170.000,296.400 169.820,296.400 169.600 C 296.400 169.380,296.760 169.200,297.200 169.200 C 297.640 169.200,298.000 169.020,298.000 168.800 C 298.000 168.580,298.585 168.386,299.300 168.368 C 300.015 168.351,300.382 168.249,300.116 168.141 C 299.808 168.015,300.097 167.472,300.916 166.639 C 301.736 165.806,302.306 165.490,302.494 165.767 C 302.661 166.013,302.790 165.811,302.794 165.300 C 302.798 164.669,303.039 164.400,303.600 164.400 C 304.040 164.400,304.400 164.164,304.400 163.875 C 304.400 163.587,304.760 162.964,305.200 162.492 C 305.640 162.020,306.000 161.258,306.000 160.800 C 306.000 160.342,306.370 159.569,306.823 159.083 C 307.406 158.458,307.615 157.767,307.539 156.717 C 307.430 155.195,307.924 154.055,308.096 155.433 C 308.149 155.855,308.284 143.780,308.396 128.600 C 308.525 111.107,308.457 100.594,308.209 99.891 C 307.932 99.106,307.961 98.554,308.309 97.997 C 308.579 97.565,308.800 96.218,308.800 95.005 C 308.800 93.792,308.980 92.800,309.200 92.800 C 309.420 92.800,309.600 92.080,309.600 91.200 C 309.600 90.320,309.780 89.600,310.000 89.600 C 310.220 89.600,310.400 89.060,310.400 88.400 C 310.400 87.740,310.580 87.200,310.800 87.200 C 311.020 87.200,311.200 86.660,311.200 86.000 C 311.200 85.340,311.380 84.800,311.600 84.800 C 311.820 84.800,312.000 84.440,312.000 84.000 C 312.000 83.560,312.180 83.200,312.400 83.200 C 312.620 83.200,312.800 82.840,312.800 82.400 C 312.800 81.960,312.980 81.600,313.200 81.600 C 313.420 81.600,313.600 81.240,313.600 80.800 C 313.600 80.360,313.780 80.000,314.000 80.000 C 314.220 80.000,314.400 79.640,314.400 79.200 C 314.400 78.760,314.580 78.400,314.800 78.400 C 315.020 78.400,315.200 78.040,315.200 77.600 C 315.200 77.160,315.380 76.800,315.600 76.800 C 315.820 76.800,316.000 76.517,316.000 76.171 C 316.000 75.268,317.073 74.251,317.336 74.904 C 317.482 75.264,317.546 75.248,317.568 74.847 C 317.586 74.543,317.988 73.958,318.461 73.547 C 319.051 73.035,319.146 72.792,318.761 72.775 C 318.453 72.761,318.605 72.587,319.100 72.388 C 319.631 72.174,320.000 71.683,320.000 71.189 C 320.000 70.729,320.135 70.435,320.300 70.534 C 320.465 70.634,320.820 70.478,321.088 70.187 C 321.473 69.771,321.473 69.617,321.088 69.461 C 320.820 69.352,321.005 69.249,321.500 69.232 C 322.155 69.209,322.402 68.955,322.406 68.300 C 322.411 67.572,322.486 67.515,322.800 68.000 C 323.076 68.427,323.188 67.966,323.188 66.400 C 323.188 64.834,323.076 64.373,322.800 64.800 C 322.488 65.283,322.411 65.219,322.406 64.476 C 322.402 63.925,322.228 63.659,321.973 63.817 C 321.717 63.975,321.597 63.784,321.673 63.340 C 321.746 62.913,321.589 62.642,321.300 62.700 C 321.025 62.755,320.821 62.665,320.847 62.500 C 321.000 61.535,320.668 60.780,319.600 59.663 C 318.940 58.972,318.400 58.226,318.400 58.004 C 318.400 57.782,318.117 57.600,317.771 57.600 C 316.927 57.600,316.001 56.626,315.994 55.729 C 315.989 55.112,315.928 55.092,315.600 55.600 C 315.300 56.065,315.211 55.944,315.206 55.063 C 315.202 54.249,314.963 53.863,314.366 53.707 C 313.908 53.587,313.708 53.379,313.922 53.245 C 314.156 53.098,314.089 52.794,313.756 52.484 C 313.410 52.164,313.200 52.132,313.200 52.400 C 313.200 52.668,312.990 52.636,312.644 52.316 C 312.242 51.942,312.214 51.719,312.544 51.506 C 312.833 51.320,312.740 51.210,312.289 51.206 C 311.363 51.198,307.865 47.724,308.517 47.459 C 308.783 47.351,308.674 47.249,308.276 47.232 C 307.878 47.214,307.664 47.020,307.800 46.800 C 307.936 46.580,307.902 46.400,307.724 46.400 C 307.546 46.399,306.882 45.953,306.248 45.408 C 305.614 44.863,304.935 44.517,304.738 44.638 C 304.541 44.760,304.430 44.621,304.490 44.330 C 304.551 44.038,304.362 43.849,304.070 43.910 C 303.779 43.970,303.647 43.848,303.777 43.637 C 304.089 43.132,302.444 42.000,301.399 42.000 C 300.947 42.000,300.317 41.640,300.000 41.200 C 299.683 40.760,299.143 40.400,298.800 40.400 C 298.457 40.400,297.917 40.040,297.600 39.600 C 297.283 39.160,296.743 38.800,296.400 38.800 C 296.057 38.800,295.517 38.440,295.200 38.000 C 294.883 37.560,294.303 37.200,293.912 37.200 C 293.520 37.200,293.200 37.020,293.200 36.800 C 293.200 36.580,292.917 36.400,292.571 36.400 C 291.826 36.400,290.731 35.403,291.086 35.048 C 291.222 34.911,290.865 34.800,290.294 34.800 C 289.605 34.800,289.168 34.530,289.000 34.000 C 288.860 33.560,288.398 33.200,287.973 33.200 C 287.548 33.200,287.200 33.020,287.200 32.800 C 287.200 32.580,286.671 32.400,286.024 32.400 C 285.377 32.400,284.736 32.220,284.600 32.000 C 284.464 31.780,283.868 31.597,283.276 31.594 C 282.434 31.589,282.331 31.503,282.800 31.200 C 283.251 30.909,283.052 30.809,282.000 30.800 C 280.948 30.791,280.749 30.691,281.200 30.400 C 281.645 30.112,281.406 30.011,280.271 30.006 C 279.431 30.003,278.489 29.746,278.178 29.436 C 277.868 29.125,277.206 28.947,276.707 29.040 C 276.208 29.133,276.050 29.093,276.356 28.952 C 277.120 28.600,274.227 27.595,272.305 27.545 C 271.484 27.523,270.897 27.367,271.001 27.198 C 271.294 26.724,268.873 26.487,268.416 26.944 C 268.195 27.165,267.881 27.214,267.718 27.052 C 267.556 26.889,267.688 26.589,268.012 26.385 C 268.399 26.141,267.744 26.062,266.100 26.156 C 264.270 26.259,263.600 26.161,263.600 25.789 C 263.600 25.476,262.923 25.227,261.838 25.140 C 260.869 25.063,260.160 25.135,260.262 25.300 C 260.364 25.465,259.907 25.600,259.247 25.600 C 258.587 25.600,257.936 25.420,257.800 25.200 C 257.664 24.980,256.678 24.800,255.610 24.800 C 254.430 24.800,253.587 24.604,253.465 24.300 C 253.304 23.900,253.257 23.900,253.232 24.300 C 253.189 24.968,252.476 24.933,251.771 24.229 C 250.887 23.344,251.088 22.802,252.400 22.540 C 253.060 22.408,253.600 22.143,253.600 21.950 C 253.600 21.758,254.039 21.600,254.576 21.600 C 255.113 21.600,255.664 21.420,255.800 21.200 C 255.936 20.980,256.397 20.800,256.824 20.800 C 257.251 20.800,257.600 20.620,257.600 20.400 C 257.600 20.180,258.050 20.000,258.600 20.000 C 259.150 20.000,259.600 19.820,259.600 19.600 C 259.600 19.380,259.960 19.200,260.400 19.200 C 260.840 19.200,261.200 19.020,261.200 18.800 C 261.200 18.580,261.663 18.400,262.229 18.400 C 264.694 18.400,265.581 13.416,263.200 12.940 C 262.540 12.808,262.000 12.543,262.000 12.350 C 262.000 12.158,261.640 12.000,261.200 12.000 C 260.760 12.000,260.400 11.820,260.400 11.600 C 260.400 11.380,260.128 11.200,259.795 11.200 C 259.462 11.200,258.877 11.041,258.495 10.847 C 256.221 9.690,252.476 8.400,251.392 8.400 C 250.846 8.400,250.400 8.220,250.400 8.000 C 250.400 7.780,249.860 7.600,249.200 7.600 C 248.540 7.600,248.000 7.420,248.000 7.200 C 248.000 6.980,247.460 6.800,246.800 6.800 C 246.140 6.800,245.600 6.620,245.600 6.400 C 245.600 6.180,244.880 6.000,244.000 6.000 C 243.120 6.000,242.400 5.820,242.400 5.600 C 242.400 5.380,241.961 5.200,241.424 5.200 C 240.887 5.200,240.336 5.020,240.200 4.800 C 240.064 4.580,239.333 4.400,238.576 4.400 C 237.819 4.400,237.200 4.220,237.200 4.000 C 237.200 3.780,236.480 3.600,235.600 3.600 C 234.720 3.600,234.000 3.420,234.000 3.200 C 234.000 2.980,233.100 2.800,232.000 2.800 C 230.900 2.800,230.000 2.620,230.000 2.400 C 230.000 2.180,229.100 2.000,228.000 2.000 C 226.900 2.000,226.000 1.820,226.000 1.600 C 226.000 1.380,225.046 1.200,223.880 1.200 C 222.714 1.200,221.540 0.980,221.272 0.712 C 220.787 0.227,189.821 -0.115,181.700 0.274 " stroke="none" fill="#474752" fill-rule="evenodd"></path><path id="path2" d="M148.800 77.998 C 148.470 78.212,147.626 78.391,146.924 78.394 C 146.222 78.397,145.536 78.580,145.400 78.800 C 145.264 79.020,144.711 79.200,144.171 79.200 C 143.631 79.200,142.877 79.365,142.495 79.566 C 142.113 79.768,141.080 80.238,140.200 80.610 C 127.070 86.168,117.937 97.850,115.660 112.000 C 115.413 113.533,115.155 126.325,115.030 143.179 C 114.845 168.218,114.743 171.800,114.209 172.099 C 113.516 172.487,113.311 178.340,113.966 179.020 C 114.168 179.229,114.433 181.200,114.557 183.400 C 114.869 188.975,115.216 191.600,115.639 191.600 C 115.837 191.600,116.000 192.399,116.000 193.376 C 116.000 194.353,116.180 195.264,116.400 195.400 C 116.620 195.536,116.800 196.231,116.800 196.944 C 116.800 197.657,116.979 198.419,117.198 198.638 C 117.416 198.856,117.635 199.509,117.683 200.089 C 117.730 200.668,117.912 201.055,118.085 200.948 C 118.258 200.840,118.400 201.216,118.400 201.782 C 118.400 202.772,118.524 203.135,119.538 205.095 C 119.792 205.587,120.000 206.262,120.000 206.595 C 120.000 206.928,120.180 207.200,120.400 207.200 C 120.620 207.200,120.800 207.560,120.800 208.000 C 120.800 208.440,120.980 208.800,121.200 208.800 C 121.420 208.800,121.600 209.340,121.600 210.000 C 121.600 210.660,121.780 211.200,122.000 211.200 C 122.220 211.200,122.400 211.560,122.400 212.000 C 122.400 212.440,122.580 212.800,122.800 212.800 C 123.020 212.800,123.200 213.171,123.200 213.624 C 123.200 214.077,123.380 214.336,123.600 214.200 C 123.820 214.064,124.000 214.233,124.000 214.576 C 124.000 214.919,124.160 215.200,124.355 215.200 C 124.551 215.200,124.826 215.812,124.966 216.560 C 125.106 217.308,125.486 218.140,125.811 218.409 C 126.135 218.678,126.400 219.118,126.400 219.387 C 126.400 219.656,126.850 220.399,127.400 221.038 C 127.949 221.677,128.399 222.385,128.400 222.612 C 128.400 222.838,128.760 223.283,129.200 223.600 C 129.640 223.917,130.000 224.367,130.000 224.600 C 130.000 224.833,130.360 225.283,130.800 225.600 C 131.240 225.917,131.600 226.415,131.600 226.707 C 131.600 226.999,132.500 228.138,133.600 229.238 C 134.700 230.338,135.600 231.411,135.600 231.622 C 135.600 232.046,142.027 238.418,144.049 240.000 C 144.753 240.550,145.659 241.315,146.064 241.700 C 146.469 242.085,147.081 242.400,147.424 242.400 C 147.767 242.400,147.936 242.580,147.800 242.800 C 147.664 243.020,147.833 243.200,148.176 243.200 C 148.519 243.200,148.800 243.350,148.800 243.532 C 148.800 243.715,149.295 244.119,149.900 244.430 C 150.505 244.740,151.291 245.311,151.647 245.697 C 152.003 246.084,152.505 246.400,152.764 246.400 C 153.022 246.400,153.620 246.760,154.092 247.200 C 154.564 247.640,155.187 248.000,155.475 248.000 C 155.764 248.000,156.000 248.180,156.000 248.400 C 156.000 248.620,156.360 248.800,156.800 248.800 C 157.240 248.800,157.600 248.980,157.600 249.200 C 157.600 249.420,157.870 249.600,158.200 249.600 C 158.530 249.600,158.800 249.780,158.800 250.000 C 158.800 250.220,159.145 250.400,159.567 250.400 C 159.988 250.400,160.393 250.536,160.467 250.702 C 160.778 251.407,166.008 253.691,166.823 253.478 C 167.295 253.355,168.157 253.444,168.740 253.677 C 170.819 254.506,171.428 254.721,173.600 255.395 C 189.934 260.458,206.270 260.907,221.800 256.718 C 224.589 255.966,230.572 253.988,231.318 253.571 C 231.713 253.351,232.658 253.287,233.418 253.430 C 234.320 253.599,234.800 253.535,234.800 253.245 C 234.800 253.000,235.160 252.800,235.600 252.800 C 236.040 252.800,236.400 252.620,236.400 252.400 C 236.400 252.180,236.816 252.000,237.325 252.000 C 237.833 252.000,238.636 251.640,239.108 251.200 C 239.580 250.760,240.244 250.400,240.583 250.400 C 240.922 250.400,241.200 250.220,241.200 250.000 C 241.200 249.780,241.470 249.600,241.800 249.600 C 242.130 249.600,242.403 249.465,242.406 249.300 C 242.410 249.135,243.310 248.560,244.406 248.021 C 245.503 247.483,246.400 246.898,246.400 246.721 C 246.400 246.545,246.636 246.400,246.925 246.400 C 247.213 246.400,247.836 246.040,248.308 245.600 C 248.780 245.160,249.378 244.800,249.636 244.800 C 249.895 244.800,250.397 244.476,250.753 244.081 C 251.109 243.686,252.030 242.929,252.800 242.400 C 253.570 241.871,254.515 241.087,254.900 240.658 C 255.285 240.229,255.600 240.019,255.600 240.193 C 255.600 240.366,255.981 240.024,256.446 239.433 C 256.911 238.842,257.370 238.436,257.466 238.533 C 257.693 238.760,262.000 234.455,262.000 234.001 C 262.000 233.810,262.360 233.540,262.800 233.400 C 263.240 233.260,263.600 232.888,263.600 232.573 C 263.600 232.258,263.780 232.000,264.000 232.000 C 264.220 232.000,264.400 231.719,264.400 231.376 C 264.400 231.033,264.580 230.864,264.800 231.000 C 265.020 231.136,265.200 231.039,265.200 230.784 C 265.200 230.529,265.740 229.817,266.400 229.200 C 267.060 228.583,267.600 227.871,267.600 227.616 C 267.600 227.361,267.780 227.264,268.000 227.400 C 268.220 227.536,268.400 227.412,268.400 227.124 C 268.401 226.836,268.851 226.077,269.400 225.438 C 269.950 224.799,270.400 224.151,270.400 223.999 C 270.400 223.847,270.715 223.350,271.100 222.895 C 273.525 220.028,274.003 219.312,273.162 219.807 C 272.674 220.094,273.774 218.546,274.446 218.000 C 274.765 217.741,275.382 215.889,275.279 215.500 C 275.236 215.335,275.380 215.200,275.600 215.200 C 275.820 215.200,276.000 214.855,276.000 214.433 C 276.000 214.012,276.167 213.607,276.370 213.533 C 276.574 213.460,276.799 213.130,276.870 212.800 C 276.942 212.470,277.315 211.909,277.700 211.553 C 278.085 211.197,278.400 210.432,278.400 209.853 C 278.400 209.274,278.580 208.800,278.800 208.800 C 279.020 208.800,279.200 208.440,279.200 208.000 C 279.200 207.560,279.380 207.200,279.600 207.200 C 279.820 207.200,280.000 206.928,280.000 206.595 C 280.000 206.007,280.167 205.582,281.138 203.705 C 281.392 203.213,281.600 202.448,281.600 202.005 C 281.600 201.562,281.780 201.200,282.000 201.200 C 282.220 201.200,282.400 200.581,282.400 199.824 C 282.400 199.067,282.580 198.336,282.800 198.200 C 283.020 198.064,283.200 197.344,283.200 196.600 C 283.200 195.856,283.380 195.136,283.600 195.000 C 283.820 194.864,284.000 194.043,284.000 193.176 C 284.000 192.309,284.180 191.600,284.400 191.600 C 284.620 191.600,284.800 190.610,284.800 189.400 C 284.800 188.190,284.980 187.200,285.200 187.200 C 285.439 187.200,285.600 185.659,285.600 183.376 C 285.600 181.273,285.746 179.643,285.924 179.753 C 286.756 180.267,286.471 172.871,285.626 172.026 C 284.806 171.206,284.800 170.976,284.800 142.177 C 284.800 123.277,284.653 112.500,284.378 111.277 C 283.381 106.840,281.659 101.737,280.370 99.400 C 279.117 97.127,277.835 95.000,277.599 94.800 C 277.468 94.690,276.922 93.970,276.385 93.200 C 273.152 88.563,265.017 82.431,259.400 80.397 C 258.960 80.237,258.150 79.923,257.600 79.699 C 256.664 79.317,255.038 78.847,252.200 78.138 C 250.340 77.673,149.510 77.537,148.800 77.998 M245.565 372.912 C 240.999 375.989,241.784 382.832,246.926 384.775 C 249.139 385.611,270.978 385.329,272.716 384.443 C 277.614 381.943,277.711 375.242,272.890 372.500 C 271.059 371.458,247.188 371.818,245.565 372.912 " stroke="none" fill="#fbecd5" fill-rule="evenodd"></path><path id="path3" d="M176.500 77.500 C 189.425 77.558,210.575 77.558,223.500 77.500 C 236.425 77.441,225.850 77.393,200.000 77.393 C 174.150 77.393,163.575 77.441,176.500 77.500 M284.989 143.600 C 284.989 158.890,285.039 165.145,285.100 157.500 C 285.161 149.855,285.161 137.345,285.100 129.700 C 285.039 122.055,284.989 128.310,284.989 143.600 M167.003 253.700 C 166.909 253.975,166.739 255.640,166.625 257.400 C 166.219 263.697,165.930 266.206,165.568 266.580 C 165.365 266.789,165.200 267.464,165.200 268.080 C 165.200 268.696,165.020 269.200,164.800 269.200 C 164.580 269.200,164.400 269.729,164.400 270.376 C 164.400 271.023,164.209 271.671,163.976 271.815 C 163.708 271.980,163.819 272.279,164.276 272.626 C 164.753 272.987,164.820 273.179,164.471 273.187 C 163.660 273.207,162.696 274.351,162.945 275.000 C 163.067 275.318,162.859 275.758,162.483 275.977 C 162.108 276.196,161.955 276.381,162.144 276.388 C 162.334 276.395,162.064 276.745,161.544 277.166 C 161.025 277.587,160.690 277.998,160.800 278.080 C 160.910 278.161,161.810 278.865,162.800 279.644 C 182.839 295.409,209.407 297.173,230.544 284.140 C 232.555 282.900,234.290 281.774,234.400 281.637 C 234.510 281.501,235.545 280.680,236.700 279.812 C 237.855 278.945,238.800 278.101,238.800 277.937 C 238.800 277.199,237.824 275.600,237.373 275.600 C 237.072 275.600,236.958 275.284,237.084 274.800 C 237.201 274.353,237.096 274.000,236.847 274.000 C 236.601 274.000,236.397 273.415,236.394 272.700 C 236.389 271.714,236.294 271.545,236.000 272.000 C 235.570 272.666,235.536 272.558,235.470 270.300 C 235.453 269.695,235.247 269.200,235.012 269.200 C 234.778 269.200,234.616 268.570,234.652 267.800 C 234.688 267.030,234.556 266.400,234.359 266.400 C 234.162 266.400,234.000 265.241,234.000 263.824 C 234.000 262.407,233.820 261.136,233.600 261.000 C 233.379 260.863,233.200 259.063,233.200 256.976 C 233.200 252.994,233.000 252.638,231.295 253.586 C 230.566 253.991,224.538 255.979,221.800 256.718 C 206.270 260.907,189.934 260.458,173.600 255.395 C 171.397 254.712,170.768 254.489,168.681 253.650 C 167.282 253.087,167.213 253.089,167.003 253.700 M253.500 371.899 C 256.855 371.966,262.345 371.966,265.700 371.899 C 269.055 371.832,266.310 371.778,259.600 371.778 C 252.890 371.778,250.145 371.832,253.500 371.899 M276.509 378.400 C 276.509 379.390,276.587 379.795,276.682 379.300 C 276.778 378.805,276.778 377.995,276.682 377.500 C 276.587 377.005,276.509 377.410,276.509 378.400 M243.200 382.125 C 243.200 382.194,243.785 382.779,244.500 383.425 L 245.800 384.600 244.625 383.300 C 243.530 382.088,243.200 381.816,243.200 382.125 " stroke="none" fill="#f8d2a4" fill-rule="evenodd"></path><path id="path4" d="M251.200 23.229 C 251.200 23.782,252.218 24.800,252.771 24.800 C 253.007 24.800,253.200 24.620,253.200 24.400 C 253.200 24.180,252.930 24.000,252.600 24.000 C 252.270 24.000,252.000 23.730,252.000 23.400 C 252.000 23.070,251.820 22.800,251.600 22.800 C 251.380 22.800,251.200 22.993,251.200 23.229 M257.800 25.200 C 257.936 25.420,258.587 25.600,259.247 25.600 C 259.945 25.600,260.344 25.433,260.200 25.200 C 260.064 24.980,259.413 24.800,258.753 24.800 C 258.055 24.800,257.656 24.967,257.800 25.200 M263.600 26.000 C 263.600 26.220,263.859 26.400,264.176 26.400 C 264.493 26.400,264.864 26.220,265.000 26.000 C 265.136 25.780,264.877 25.600,264.424 25.600 C 263.971 25.600,263.600 25.780,263.600 26.000 M267.473 26.645 C 267.714 27.275,268.246 27.372,268.572 26.845 C 268.692 26.650,268.446 26.401,268.025 26.291 C 267.489 26.151,267.324 26.257,267.473 26.645 M294.800 37.367 C 294.800 37.788,296.005 38.928,296.221 38.712 C 296.322 38.611,296.044 38.202,295.602 37.802 C 295.161 37.403,294.800 37.207,294.800 37.367 M297.200 39.025 C 297.200 39.325,298.273 40.400,298.571 40.400 C 299.080 40.400,298.751 39.762,298.000 39.293 C 297.560 39.018,297.200 38.898,297.200 39.025 M299.600 40.625 C 299.600 40.925,300.673 42.000,300.971 42.000 C 301.480 42.000,301.151 41.362,300.400 40.893 C 299.960 40.618,299.600 40.498,299.600 40.625 M309.818 49.439 C 310.829 50.450,311.738 51.195,311.839 51.095 C 312.060 50.874,308.739 47.600,308.294 47.600 C 308.121 47.600,308.806 48.427,309.818 49.439 M316.000 56.167 C 316.000 56.588,317.205 57.728,317.421 57.512 C 317.522 57.411,317.244 57.002,316.802 56.602 C 316.361 56.203,316.000 56.007,316.000 56.167 M316.500 75.023 C 315.911 75.663,315.862 76.000,316.357 76.000 C 316.698 76.000,317.337 74.796,317.109 74.583 C 317.049 74.527,316.775 74.725,316.500 75.023 M150.000 77.217 C 141.702 78.400,134.303 81.980,127.695 88.010 C 124.483 90.941,118.288 99.621,118.942 100.275 C 119.074 100.407,119.306 100.174,119.458 99.757 C 119.610 99.341,120.244 98.248,120.867 97.328 C 121.490 96.408,122.000 95.478,122.000 95.261 C 122.000 95.044,122.142 94.807,122.315 94.733 C 122.488 94.660,123.247 93.790,124.001 92.800 C 126.179 89.940,130.095 86.264,133.063 84.293 C 136.567 81.966,141.372 79.711,144.600 78.879 C 145.480 78.652,147.010 78.226,148.000 77.933 C 151.259 76.968,249.849 77.167,253.000 78.145 C 254.320 78.555,255.897 78.980,256.505 79.091 C 257.113 79.202,257.708 79.451,257.829 79.646 C 257.949 79.841,258.309 80.000,258.628 80.000 C 263.450 80.000,276.273 91.153,280.172 98.737 C 280.550 99.473,280.949 99.985,281.058 99.875 C 281.168 99.765,280.795 98.942,280.229 98.046 C 279.663 97.149,279.200 96.324,279.200 96.212 C 279.200 93.647,268.347 83.990,262.000 80.907 C 259.544 79.714,258.135 79.187,253.400 77.689 C 251.198 76.992,154.666 76.551,150.000 77.217 M311.206 85.700 C 311.211 86.428,311.286 86.485,311.600 86.000 C 312.101 85.224,312.101 84.800,311.600 84.800 C 311.380 84.800,311.203 85.205,311.206 85.700 M309.600 90.424 C 309.600 90.877,309.780 91.136,310.000 91.000 C 310.220 90.864,310.400 90.493,310.400 90.176 C 310.400 89.859,310.220 89.600,310.000 89.600 C 309.780 89.600,309.600 89.971,309.600 90.424 M308.806 93.900 C 308.811 94.757,308.898 94.868,309.200 94.400 C 309.706 93.617,309.706 92.800,309.200 92.800 C 308.980 92.800,308.803 93.295,308.806 93.900 M308.227 98.101 C 308.055 98.486,308.056 99.296,308.229 99.901 C 308.526 100.935,308.554 100.946,308.700 100.100 C 308.953 98.638,308.619 97.226,308.227 98.101 M281.200 100.471 C 281.200 100.598,281.498 101.399,281.863 102.251 C 282.228 103.103,282.935 105.150,283.436 106.800 C 283.936 108.450,284.358 109.453,284.373 109.028 C 284.402 108.204,283.971 106.721,282.681 103.200 C 281.964 101.243,281.200 99.835,281.200 100.471 M118.011 101.745 C 117.785 102.325,117.399 103.295,117.153 103.900 C 115.057 109.055,114.803 111.944,114.750 131.200 C 114.688 153.298,114.294 170.719,113.830 171.800 C 113.517 172.529,113.545 172.545,114.145 171.984 C 114.740 171.427,114.825 168.609,115.028 142.584 C 115.273 111.130,115.393 109.459,117.838 103.433 C 118.366 102.131,118.714 100.981,118.611 100.877 C 118.507 100.774,118.237 101.164,118.011 101.745 M284.670 112.801 C 284.802 114.450,284.976 115.875,285.055 115.967 C 285.393 116.356,285.153 110.946,284.809 110.401 C 284.562 110.010,284.514 110.847,284.670 112.801 M285.297 144.057 C 285.212 168.510,285.273 171.943,285.800 172.145 C 286.481 172.406,286.598 171.958,286.003 171.363 C 285.750 171.110,285.567 161.031,285.500 143.583 L 285.394 116.200 285.297 144.057 M98.400 165.524 C 98.400 165.948,99.945 167.397,100.149 167.164 C 100.228 167.074,99.867 166.589,99.346 166.086 C 98.826 165.583,98.400 165.330,98.400 165.524 M301.260 166.251 C 300.743 166.802,300.423 167.356,300.550 167.483 C 300.790 167.723,302.363 166.024,302.387 165.500 C 302.406 165.069,302.307 165.135,301.260 166.251 M294.400 170.400 C 294.400 170.620,294.670 170.800,295.000 170.800 C 295.330 170.800,295.600 170.620,295.600 170.400 C 295.600 170.180,295.330 170.000,295.000 170.000 C 294.670 170.000,294.400 170.180,294.400 170.400 M292.500 170.667 C 291.627 171.016,291.961 171.600,293.033 171.600 C 293.653 171.600,294.003 171.410,293.908 171.125 C 293.721 170.562,293.192 170.390,292.500 170.667 M288.100 171.465 C 287.057 171.886,287.663 172.400,289.200 172.400 C 290.356 172.400,290.800 172.233,290.800 171.800 C 290.800 171.208,289.223 171.012,288.100 171.465 M236.665 279.834 C 235.381 280.805,234.481 281.598,234.665 281.596 C 234.849 281.594,235.776 280.975,236.724 280.221 C 237.673 279.467,238.663 278.774,238.924 278.680 C 239.186 278.586,239.310 278.410,239.200 278.289 C 239.090 278.167,237.949 278.863,236.665 279.834 M163.469 280.533 C 165.328 282.067,170.400 285.390,170.400 285.074 C 170.400 284.979,168.967 283.960,167.216 282.810 C 165.464 281.660,163.822 280.468,163.567 280.160 C 163.311 279.852,162.930 279.600,162.720 279.600 C 162.510 279.600,162.847 280.020,163.469 280.533 M230.600 284.053 C 229.500 284.734,228.420 285.476,228.200 285.703 C 227.757 286.158,230.514 284.590,232.034 283.521 C 233.631 282.398,232.739 282.729,230.600 284.053 M190.100 292.276 C 190.485 292.376,191.115 292.376,191.500 292.276 C 191.885 292.175,191.570 292.093,190.800 292.093 C 190.030 292.093,189.715 292.175,190.100 292.276 M208.500 292.276 C 208.885 292.376,209.515 292.376,209.900 292.276 C 210.285 292.175,209.970 292.093,209.200 292.093 C 208.430 292.093,208.115 292.175,208.500 292.276 M197.900 293.095 C 199.055 293.176,200.945 293.176,202.100 293.095 C 203.255 293.014,202.310 292.948,200.000 292.948 C 197.690 292.948,196.745 293.014,197.900 293.095 M253.900 371.499 C 257.035 371.567,262.165 371.567,265.300 371.499 C 268.435 371.432,265.870 371.376,259.600 371.376 C 253.330 371.376,250.765 371.432,253.900 371.499 M273.000 372.254 C 273.220 372.448,274.029 373.145,274.799 373.803 L 276.197 375.000 275.199 373.863 C 274.649 373.238,273.840 372.541,273.400 372.314 C 272.960 372.088,272.780 372.061,273.000 372.254 M242.162 376.554 C 242.045 376.859,242.010 377.894,242.083 378.854 C 242.213 380.544,242.223 380.526,242.409 378.299 C 242.603 375.965,242.545 375.556,242.162 376.554 M253.525 385.499 C 256.893 385.566,262.293 385.566,265.525 385.499 C 268.756 385.432,266.000 385.377,259.400 385.377 C 252.800 385.377,250.156 385.432,253.525 385.499 " stroke="none" fill="#d7a09a" fill-rule="evenodd"></path></g></svg>